<svg width="41" height="40" viewBox="0 0 41 40" fill="none" xmlns="http://www.w3.org/2000/svg">
<path d="M26.3337 18.3333C26.3337 19.0994 26.1828 19.8579 25.8896 20.5657C25.5965 21.2734 25.1668 21.9164 24.6251 22.4581C24.0834 22.9998 23.4404 23.4295 22.7326 23.7226C22.0249 24.0158 21.2664 24.1667 20.5003 24.1667C19.7343 24.1667 18.9757 24.0158 18.268 23.7226C17.5603 23.4295 16.9172 22.9998 16.3755 22.4581C15.8339 21.9164 15.4042 21.2734 15.111 20.5657C14.8179 19.8579 14.667 19.0994 14.667 18.3333C14.667 16.7862 15.2816 15.3025 16.3755 14.2085C17.4695 13.1146 18.9532 12.5 20.5003 12.5C22.0474 12.5 23.5312 13.1146 24.6251 14.2085C25.7191 15.3025 26.3337 16.7862 26.3337 18.3333Z" stroke="#FAE0CD" stroke-linecap="round" stroke-linejoin="round"/>
<path d="M20.5002 3.3335C28.6169 3.3335 35.5002 10.0552 35.5002 18.2102C35.5002 26.4935 28.5052 32.3085 22.0452 36.2602C21.5736 36.5256 21.0415 36.6651 20.5002 36.6651C19.959 36.6651 19.4269 36.5256 18.9552 36.2602C12.5052 32.2718 5.50024 26.5252 5.50024 18.2118C5.50024 10.0552 12.3836 3.3335 20.5002 3.3335Z" stroke="#FAE0CD" stroke-linecap="round" stroke-linejoin="round"/>
</svg>
