<svg width="116" height="41" viewBox="0 0 116 41" fill="none" xmlns="http://www.w3.org/2000/svg">
<path d="M22.9569 37.45C22.2102 37.31 21.4635 37.2167 20.7169 37.17C20.0169 37.1233 19.2935 36.96 18.5469 36.68C18.2669 36.5867 17.9169 36.33 17.4969 35.91C17.1235 35.49 16.8669 35.1633 16.7269 34.93C16.4469 34.51 16.2369 34.09 16.0969 33.67C16.0035 33.25 15.9802 32.8067 16.0269 32.34C16.0735 32.2 16.0969 32.0133 16.0969 31.78C16.0969 31.08 16.3069 30.3567 16.7269 29.61C17.1469 28.8633 17.5202 28.1633 17.8469 27.51L18.0569 27.3C18.5235 26.3667 19.1535 25.3167 19.9469 24.15C20.7402 22.9833 21.4402 21.98 22.0469 21.14C22.4669 20.5333 22.9102 19.95 23.3769 19.39C23.8902 18.83 24.3335 18.2467 24.7069 17.64L25.8269 15.82L26.3169 15.19L26.4569 14.98C26.4569 14.9333 26.4569 14.91 26.4569 14.91C26.5035 14.8633 26.5269 14.84 26.5269 14.84C27.2269 13.72 27.9035 12.5767 28.5569 11.41C29.2569 10.2433 29.6769 8.98333 29.8169 7.63C29.8635 7.49 29.9102 7.35 29.9569 7.21C30.0035 7.07 30.0502 6.93 30.0969 6.79V6.51C30.0969 6.23 30.0735 5.92667 30.0269 5.6C29.9802 5.27333 29.9802 5.04 30.0269 4.9L29.8169 3.99C29.4902 3.75667 29.3269 3.57 29.3269 3.43C29.3735 3.24333 29.1169 3.01 28.5569 2.73L28.2769 2.45C28.2302 2.59 28.1135 2.66 27.9269 2.66C27.5535 2.66 27.3202 2.49667 27.2269 2.17L26.7369 2.24C26.6902 2.1 26.4102 1.98333 25.8969 1.89C25.4302 1.79667 25.1502 1.77333 25.0569 1.82L24.8469 1.61C24.7069 1.61 24.5202 1.61 24.2869 1.61C24.1002 1.56333 23.9369 1.56333 23.7969 1.61C23.6569 1.70333 23.5402 1.72667 23.4469 1.68C23.3535 1.63333 23.2135 1.61 23.0269 1.61C22.8869 1.61 22.7469 1.63333 22.6069 1.68C22.4669 1.72667 22.3035 1.77333 22.1169 1.82L21.6969 2.03C21.2769 2.12333 20.7635 2.19333 20.1569 2.24C19.5969 2.24 19.1302 2.35666 18.7569 2.59L18.6869 2.45L17.0069 2.94L16.5169 3.01C16.1902 3.29 16.0269 3.47666 16.0269 3.57C16.0269 3.75666 16.1902 3.87333 16.5169 3.92C16.8435 3.92 16.8669 4.01333 16.5869 4.2C16.2135 4.38667 15.8169 4.52667 15.3969 4.62C14.9769 4.71333 14.5802 4.87667 14.2069 5.11C14.0202 5.25 13.8335 5.39 13.6469 5.53C13.5069 5.62333 13.2969 5.64666 13.0169 5.6L12.8069 5.74L11.8969 6.44C11.4769 6.39333 10.9869 6.53333 10.4269 6.86C9.86687 7.18667 9.40021 7.46667 9.02687 7.7L8.95687 7.56C8.86354 7.60666 8.74687 7.7 8.60687 7.84C8.51354 7.98 8.42021 8.09667 8.32687 8.19L5.94687 9.59L5.73687 9.52L5.45687 10.08L5.31687 10.01C4.85021 10.3833 4.43021 10.71 4.05687 10.99C3.73021 11.27 3.40354 11.69 3.07687 12.25L3.14687 13.09C3.33354 13.1833 3.49687 13.2533 3.63687 13.3C3.82354 13.3467 4.01021 13.3933 4.19687 13.44L4.33687 13.3C5.41021 13.3933 6.41354 13.3233 7.34687 13.09L7.41687 13.16L7.90687 12.88L7.97687 13.02L9.79687 12.46L9.86687 12.53C10.1002 12.3433 10.2869 12.25 10.4269 12.25C10.6135 12.25 10.4502 12.46 9.93687 12.88C9.42354 13.3 8.86354 13.4633 8.25687 13.37L8.04687 13.72H7.48687C7.53354 13.58 7.46354 13.58 7.27687 13.72C7.13687 13.86 7.06687 13.93 7.06687 13.93C6.46021 14.1167 5.94687 14.2567 5.52687 14.35C5.10687 14.4433 4.66354 14.49 4.19687 14.49C4.01021 14.49 3.77687 14.4667 3.49687 14.42C3.26354 14.3733 3.00687 14.35 2.72687 14.35H2.65687C2.56354 14.35 2.44687 14.3733 2.30687 14.42C2.21354 14.4667 2.09687 14.4667 1.95687 14.42C1.16354 14 0.766873 13.44 0.766873 12.74C0.766873 11.9467 1.07021 11.13 1.67687 10.29C2.28354 9.45 2.93687 8.75 3.63687 8.19C4.33687 7.63 4.82687 7.37333 5.10687 7.42L5.17687 7.14L5.80687 6.86L6.08687 6.51L6.15687 6.65L7.48687 5.53L7.55687 5.6L8.95687 4.83L9.02687 4.97C9.12021 4.87667 9.21354 4.78333 9.30687 4.69C9.44687 4.59666 9.49354 4.66666 9.44687 4.9L9.93687 4.41L10.0069 4.48C10.5202 3.96666 10.8935 3.71 11.1269 3.71C11.4069 3.71 11.8502 3.59333 12.4569 3.36C12.9235 3.17333 13.3902 2.96333 13.8569 2.73C14.3702 2.45 14.8602 2.28667 15.3269 2.24C15.6069 2.14666 15.8402 2.07666 16.0269 2.03C16.2135 1.98333 16.4235 1.91333 16.6569 1.82L16.7269 1.96C16.8669 1.86666 17.1235 1.75 17.4969 1.61C17.9169 1.47 18.3135 1.35333 18.6869 1.26C19.1069 1.12 19.3635 1.09667 19.4569 1.19C19.5502 1.33 19.6435 1.4 19.7369 1.4C19.9235 1.4 20.0869 1.33 20.2269 1.19C20.4135 1.05 20.5769 0.956665 20.7169 0.909999C20.9502 0.863331 21.1602 0.839998 21.3469 0.839998C21.5802 0.793331 21.7902 0.793331 21.9769 0.839998C22.0235 0.839998 22.1169 0.816664 22.2569 0.769998C22.3502 0.723332 22.5135 0.699999 22.7469 0.699999C23.0735 0.699999 23.4469 0.746665 23.8669 0.839998C24.2869 0.933331 24.5902 0.979998 24.7769 0.979998H24.9169C25.0569 0.979998 25.2202 0.956665 25.4069 0.909999C25.6402 0.816665 25.7802 0.793331 25.8269 0.839998C26.1069 0.979999 26.4102 1.09667 26.7369 1.19C27.0635 1.23667 27.3669 1.33 27.6469 1.47C27.8802 1.65666 28.1369 1.72667 28.4169 1.68C28.7435 1.63333 28.9302 1.63333 28.9769 1.68C29.7702 2.24 30.4469 2.66 31.0069 2.94C31.6135 3.22 32.1035 3.87333 32.4769 4.9C32.7569 5.6 32.8969 6.3 32.8969 7C32.8969 7.32667 32.8502 7.65333 32.7569 7.98C32.7102 8.30667 32.6402 8.65667 32.5469 9.03C32.4069 9.40333 32.2669 9.77667 32.1269 10.15C32.0335 10.4767 31.9402 10.8267 31.8469 11.2C31.8002 11.3867 31.5669 11.8533 31.1469 12.6C30.7735 13.3467 30.3769 14.0933 29.9569 14.84C29.5369 15.54 29.2335 15.9833 29.0469 16.17C28.7202 16.5433 28.3702 16.9633 27.9969 17.43C27.6702 17.8967 27.3669 18.3633 27.0869 18.83C26.6669 19.4367 26.2469 20.02 25.8269 20.58C25.4069 21.0933 24.9635 21.6533 24.4969 22.26C23.9835 22.9133 23.4935 23.6133 23.0269 24.36C22.5602 25.1067 22.0935 25.8533 21.6269 26.6C21.5335 26.7867 21.4402 26.9967 21.3469 27.23C21.3002 27.4167 21.1835 27.6033 20.9969 27.79H20.9269C20.8335 27.79 20.7169 27.8833 20.5769 28.07C20.4835 28.21 20.4135 28.3267 20.3669 28.42C20.4135 28.6067 20.3202 28.9567 20.0869 29.47C19.9002 29.9833 19.6902 30.52 19.4569 31.08C19.2235 31.5933 19.0602 31.9433 18.9669 32.13C18.8269 32.41 18.7569 32.5967 18.7569 32.69C18.8035 32.7833 18.8035 32.9467 18.7569 33.18C18.7102 34.16 19.0602 34.86 19.8069 35.28C20.6002 35.7467 21.3935 36.0967 22.1869 36.33C22.3735 36.3767 22.5369 36.4 22.6769 36.4C22.8635 36.4467 23.0502 36.47 23.2369 36.47C23.9835 36.47 24.7302 36.3533 25.4769 36.12C26.2235 35.8867 26.8535 35.6533 27.3669 35.42C27.9269 35.2333 28.2535 35.1633 28.3469 35.21L28.5569 34.93C28.7902 34.93 28.9769 34.8833 29.1169 34.79C29.3035 34.6967 29.4902 34.6267 29.6769 34.58C29.7702 34.4867 29.8869 34.44 30.0269 34.44C30.1202 34.44 30.1669 34.44 30.1669 34.44L30.6569 34.16L30.5869 34.09C30.5869 33.9967 30.7035 33.9267 30.9369 33.88C31.1702 33.7867 31.3102 33.74 31.3569 33.74V33.6L32.0569 33.18C32.1035 33.1333 32.1502 33.1333 32.1969 33.18C32.2435 33.18 32.2902 33.1567 32.3369 33.11C32.5702 33.0167 32.7569 32.8533 32.8969 32.62C33.0369 32.3867 33.2235 32.2467 33.4569 32.2C33.9702 31.9667 34.5769 31.5467 35.2769 30.94C36.0235 30.2867 36.7235 29.61 37.3769 28.91C38.0769 28.21 38.6135 27.65 38.9869 27.23C39.1269 27.09 39.2435 26.9267 39.3369 26.74C39.4769 26.5533 39.6169 26.4133 39.7569 26.32L44.0269 21.91C44.1669 21.77 44.3069 21.63 44.4469 21.49C44.5869 21.3033 44.6802 21.1167 44.7269 20.93C44.7269 20.93 44.8902 20.7667 45.2169 20.44C45.5435 20.0667 45.8935 19.6933 46.2669 19.32C46.6402 18.9 46.8735 18.62 46.9669 18.48C47.0602 18.2933 47.2002 18.0133 47.3869 17.64C47.5735 17.22 47.6669 16.9167 47.6669 16.73C47.6669 16.6367 47.5969 16.5433 47.4569 16.45C47.3169 16.31 47.2469 16.1467 47.2469 15.96C47.2469 15.6333 47.2002 15.33 47.1069 15.05C47.0135 14.7233 46.9669 14.4433 46.9669 14.21C47.0135 13.8367 47.1302 13.4167 47.3169 12.95C47.5035 12.4833 47.7602 12.1567 48.0869 11.97C48.2735 11.8767 48.4135 11.83 48.5069 11.83L48.7169 11.9C48.8102 11.8067 48.8335 11.7133 48.7869 11.62C48.7869 11.5267 48.8102 11.4333 48.8569 11.34V11.2L48.7869 10.92C48.7402 10.7333 48.7169 10.3833 48.7169 9.87C48.7169 9.31 48.7169 8.79667 48.7169 8.33C48.7169 7.81667 48.6935 7.53667 48.6469 7.49V7.14C48.7402 7.18667 48.8335 7.16333 48.9269 7.07C49.0669 6.97667 49.1602 6.93 49.2069 6.93C49.3469 6.93 49.4169 7.02333 49.4169 7.21C49.5102 7.39667 49.5335 7.58333 49.4869 7.77C49.4402 7.95667 49.4169 8.14333 49.4169 8.33C49.4169 8.51667 49.4869 8.70333 49.6269 8.89C49.7669 9.03 49.8602 9.19333 49.9069 9.38C49.9535 9.47333 49.9535 9.61333 49.9069 9.8C49.9069 9.94 49.9302 10.0567 49.9769 10.15C50.0235 10.2433 50.0935 10.3367 50.1869 10.43C50.2802 10.5233 50.3502 10.6167 50.3969 10.71V10.78C50.3969 10.8733 50.3502 11.0367 50.2569 11.27C50.1635 11.5033 50.1402 11.7133 50.1869 11.9C50.3269 13.2067 50.6769 14.5367 51.2369 15.89C51.3302 16.03 51.4235 16.1467 51.5169 16.24C51.6569 16.3333 51.7502 16.45 51.7969 16.59V16.8C51.7502 16.8933 51.7035 16.9633 51.6569 17.01C51.6569 17.0567 51.6569 17.1267 51.6569 17.22C51.6569 17.6867 51.7269 18.0833 51.8669 18.41C52.0535 18.69 52.2402 18.9933 52.4269 19.32V19.46C52.4269 19.9733 52.4969 20.44 52.6369 20.86C52.8235 21.28 53.0569 21.7 53.3369 22.12C53.3835 22.1667 53.3835 22.2833 53.3369 22.47C53.3369 22.61 53.3602 22.7267 53.4069 22.82C53.5002 23.0067 53.6169 23.17 53.7569 23.31C53.8969 23.45 53.9902 23.59 54.0369 23.73C54.1769 23.9633 54.2469 24.22 54.2469 24.5C54.2935 24.78 54.3635 25.0367 54.4569 25.27C54.5502 25.4567 54.6902 25.62 54.8769 25.76C55.0635 25.8533 55.2035 25.9933 55.2969 26.18C55.5769 26.6467 55.8569 27.2067 56.1369 27.86C56.4635 28.4667 56.7902 28.9567 57.1169 29.33V29.4C57.1169 29.5867 57.2102 29.7733 57.3969 29.96C57.5835 30.1 57.7469 30.2633 57.8869 30.45C57.9335 30.5433 57.9569 30.6833 57.9569 30.87C58.0035 31.0567 58.0735 31.15 58.1669 31.15C58.2602 31.15 58.2835 31.15 58.2369 31.15C58.2369 31.1033 58.2835 31.08 58.3769 31.08L59.1469 31.71C59.2402 31.7567 59.2869 31.8267 59.2869 31.92C59.2869 31.9667 59.3102 32.0133 59.3569 32.06C59.4502 32.1067 59.5669 32.13 59.7069 32.13C59.8469 32.13 59.9402 32.2233 59.9869 32.41C60.0335 32.5033 60.1735 32.69 60.4069 32.97C60.6402 33.25 60.7802 33.4133 60.8269 33.46C60.8735 33.5067 60.9202 33.53 60.9669 33.53C61.0135 33.4833 61.0602 33.4833 61.1069 33.53C61.4335 33.67 61.7135 33.9033 61.9469 34.23C62.1802 34.5567 62.4602 34.72 62.7869 34.72H62.8569C63.0435 34.72 63.2069 34.6733 63.3469 34.58C63.4869 34.4867 63.6269 34.44 63.7669 34.44C63.8602 34.4867 63.8835 34.5333 63.8369 34.58C63.8369 34.58 63.8835 34.58 63.9769 34.58C64.0702 34.58 64.0935 34.5567 64.0469 34.51C64.0002 34.4167 64.0235 34.3933 64.1169 34.44C64.2102 34.44 64.2802 34.4867 64.3269 34.58C64.4202 34.6267 64.5135 34.6733 64.6069 34.72C64.8402 34.72 65.0035 34.65 65.0969 34.51C65.2369 34.3233 65.3535 34.16 65.4469 34.02C65.5402 33.9267 65.6335 33.9033 65.7269 33.95C65.8669 33.95 65.9835 33.9267 66.0769 33.88C66.2169 33.74 66.3335 33.6 66.4269 33.46C66.5669 33.32 66.7302 33.2267 66.9169 33.18C67.0569 33.0867 67.1735 32.97 67.2669 32.83C67.4069 32.5967 67.5002 32.34 67.5469 32.06C67.5935 31.78 67.6402 31.5467 67.6869 31.36C67.9202 31.36 68.0602 31.29 68.1069 31.15C68.3402 30.6367 68.5269 30.0767 68.6669 29.47L68.7369 29.19C68.7369 29.0967 68.7135 29.0267 68.6669 28.98C68.6669 28.9333 68.6669 28.8867 68.6669 28.84V28.63C68.6669 28.3967 68.6902 28.1633 68.7369 27.93C68.7835 27.65 68.8302 27.4167 68.8769 27.23C68.9702 27.3233 69.0169 27.2767 69.0169 27.09L69.2969 24.01C69.2969 23.9167 69.2735 23.87 69.2269 23.87C69.1802 23.8233 69.1569 23.7767 69.1569 23.73C69.1102 23.0767 69.0169 22.5633 68.8769 22.19C68.7369 21.77 68.6202 21.2567 68.5269 20.65C68.4802 20.51 68.4802 20.37 68.5269 20.23C68.5735 20.09 68.5735 19.9733 68.5269 19.88C68.4802 19.4133 68.3869 19.1333 68.2469 19.04C68.1535 18.9467 68.0602 18.83 67.9669 18.69C67.9202 18.55 67.8969 18.2467 67.8969 17.78C67.8969 17.6867 67.8502 17.57 67.7569 17.43C67.6635 17.29 67.5935 17.1967 67.5469 17.15L67.3369 17.36C67.1502 16.9867 67.0102 16.6133 66.9169 16.24C66.8235 15.8667 66.6602 15.5167 66.4269 15.19C66.3802 15.1433 66.3569 15.0033 66.3569 14.77C66.4035 14.5367 66.4269 14.3967 66.4269 14.35C66.3335 14.2567 66.2169 14.21 66.0769 14.21C65.9835 14.1633 65.8902 14.0933 65.7969 14C65.7502 13.7667 65.6569 13.6267 65.5169 13.58C65.4235 13.5333 65.3069 13.4167 65.1669 13.23C65.1202 13.1833 65.0969 13.1133 65.0969 13.02C65.1435 12.88 65.1202 12.74 65.0269 12.6C64.9802 12.5533 64.8869 12.53 64.7469 12.53C64.6535 12.53 64.5835 12.4833 64.5369 12.39C64.4902 12.25 64.3502 12.0633 64.1169 11.83C63.9302 11.5967 63.7202 11.48 63.4869 11.48C63.3935 11.5267 63.3235 11.5967 63.2769 11.69C63.2302 11.7833 63.1835 11.83 63.1369 11.83C62.9502 11.7833 62.7869 11.7133 62.6469 11.62C62.5535 11.48 62.4135 11.41 62.2269 11.41C62.1335 11.41 62.0402 11.4333 61.9469 11.48C61.9002 11.5267 61.8302 11.55 61.7369 11.55C61.6902 11.55 61.6669 11.48 61.6669 11.34C61.7135 11.2 61.6902 11.13 61.5969 11.13H61.5269C61.4335 11.13 61.3169 11.1533 61.1769 11.2C61.0369 11.2467 60.9202 11.2467 60.8269 11.2C60.9202 11.1067 60.8735 11.06 60.6869 11.06C60.5935 11.0133 60.5702 11.0133 60.6169 11.06C60.6635 11.1067 60.6402 11.13 60.5469 11.13C60.4535 11.0833 60.3369 10.9667 60.1969 10.78C60.1035 10.5933 59.9869 10.5 59.8469 10.5C59.7535 10.4533 59.7302 10.4533 59.7769 10.5C59.8235 10.5467 59.8002 10.57 59.7069 10.57C59.5669 10.5233 59.4269 10.43 59.2869 10.29C59.1469 10.15 59.0302 10.08 58.9369 10.08C58.8435 10.08 58.7969 10.1033 58.7969 10.15C58.8435 10.15 58.8202 10.1733 58.7269 10.22L58.5869 10.08C58.4002 9.89333 58.1202 9.61333 57.7469 9.24C57.3735 8.86667 57.1869 8.54 57.1869 8.26C57.2335 7.98 57.3502 7.67667 57.5369 7.35C57.7235 7.02333 57.9802 6.88333 58.3069 6.93C58.4002 6.97667 58.4935 7.04667 58.5869 7.14C58.6802 7.18667 58.7735 7.23333 58.8669 7.28H59.0769C59.1702 7.37333 59.2635 7.51333 59.3569 7.7C59.4969 7.88667 59.6135 8.00333 59.7069 8.05C59.7069 8.09667 59.7302 8.07333 59.7769 7.98C59.8702 7.88667 59.9402 7.84 59.9869 7.84C60.0802 7.84 60.1269 7.86333 60.1269 7.91C60.1269 7.91 60.1502 7.93333 60.1969 7.98C60.3369 7.98 60.4769 7.91 60.6169 7.77C60.7569 7.58333 60.8735 7.46667 60.9669 7.42C61.0602 7.42 61.0835 7.46667 61.0369 7.56C61.0369 7.60666 61.0602 7.65333 61.1069 7.7L61.7369 7.56L61.8769 7.77C62.0169 7.81667 62.1569 7.91 62.2969 8.05C62.4369 8.14333 62.5535 8.19 62.6469 8.19C62.7402 8.23666 62.7869 8.26 62.7869 8.26C62.8335 8.21333 62.8802 8.19 62.9269 8.19C63.0202 8.19 63.2535 8.28333 63.6269 8.47C64.0002 8.65667 64.2102 8.77333 64.2569 8.82C64.3502 8.86667 64.3969 8.91333 64.3969 8.96C64.3969 9.00667 64.4202 9.05333 64.4669 9.1L64.6069 8.96L64.7469 9.17L64.9569 9.03L65.5869 10.22C65.6802 10.22 65.7735 10.22 65.8669 10.22C66.0069 10.1733 66.1002 10.1733 66.1469 10.22C66.1935 10.22 66.2169 10.2667 66.2169 10.36C66.2635 10.4533 66.3102 10.5233 66.3569 10.57C66.4502 10.6167 66.6835 10.71 67.0569 10.85C67.4302 10.99 67.6402 11.06 67.6869 11.06C67.7802 11.06 67.8035 11.0367 67.7569 10.99C67.7569 10.9433 67.8035 10.92 67.8969 10.92C67.9902 10.92 68.0602 10.9667 68.1069 11.06C68.1535 11.1533 68.2235 11.2 68.3169 11.2C68.4102 11.2 68.4335 11.2 68.3869 11.2C68.3402 11.1533 68.3635 11.13 68.4569 11.13C68.5502 11.13 68.5969 11.1533 68.5969 11.2C68.5969 11.2467 68.6202 11.3167 68.6669 11.41C68.6669 11.3167 68.7602 11.2467 68.9469 11.2C69.1802 11.1533 69.3202 11.1533 69.3669 11.2C69.4602 11.2467 69.6469 11.3867 69.9269 11.62C70.2535 11.8067 70.3702 11.9467 70.2769 12.04C70.2302 12.0867 70.0669 12.18 69.7869 12.32C69.5069 12.4133 69.3202 12.46 69.2269 12.46C69.0869 12.46 68.9469 12.4367 68.8069 12.39C68.6669 12.3433 68.5269 12.32 68.3869 12.32C68.2935 12.32 68.2469 12.3433 68.2469 12.39C68.2935 12.4367 68.2702 12.46 68.1769 12.46C68.0835 12.46 67.9902 12.4367 67.8969 12.39C67.8035 12.2967 67.6869 12.25 67.5469 12.25C67.3135 12.25 67.1502 12.4133 67.0569 12.74C67.0569 12.7867 67.1502 13.02 67.3369 13.44C67.5702 13.86 67.8035 14.3033 68.0369 14.77C68.2702 15.19 68.4102 15.47 68.4569 15.61C68.5502 15.9367 68.6435 16.2633 68.7369 16.59C68.8769 16.9167 68.9702 17.2667 69.0169 17.64C69.0169 17.7333 69.0169 17.8733 69.0169 18.06C69.0169 18.2467 69.0402 18.3633 69.0869 18.41C69.1335 18.4567 69.1802 18.48 69.2269 18.48C69.2735 18.4333 69.3202 18.4567 69.3669 18.55C69.3669 18.5967 69.3669 18.6433 69.3669 18.69C69.4135 18.7367 69.4369 18.7833 69.4369 18.83V19.18C69.4369 19.2267 69.4369 19.32 69.4369 19.46C69.4835 19.6 69.5769 19.7867 69.7169 20.02V20.3C69.7169 20.7667 69.7635 21.2567 69.8569 21.77C69.9502 22.2367 70.0202 22.7267 70.0669 23.24C70.1135 23.7067 70.1135 24.1733 70.0669 24.64C70.0669 25.06 70.0669 25.5033 70.0669 25.97C70.0669 26.11 70.0902 26.2733 70.1369 26.46C70.1835 26.6 70.2069 26.7167 70.2069 26.81C70.2069 26.95 70.1835 27.0667 70.1369 27.16C70.0902 27.2533 70.0669 27.3467 70.0669 27.44C70.0202 27.6267 69.9969 27.8367 69.9969 28.07C69.9969 28.2567 69.9969 28.4433 69.9969 28.63C69.9502 28.8633 69.8569 29.2833 69.7169 29.89C69.5769 30.45 69.4602 30.8467 69.3669 31.08C69.3202 31.1267 69.2502 31.15 69.1569 31.15C69.1102 31.15 69.0869 31.1967 69.0869 31.29C68.9469 31.6167 68.8302 31.9667 68.7369 32.34C68.6435 32.6667 68.4802 32.9933 68.2469 33.32C67.9669 33.7867 67.6169 34.16 67.1969 34.44C66.8235 34.6733 66.4735 34.9767 66.1469 35.35C65.7735 35.35 65.4469 35.49 65.1669 35.77C64.8869 36.0967 64.5602 36.26 64.1869 36.26C64.0002 36.26 63.8835 36.2367 63.8369 36.19C63.7902 36.1433 63.6735 36.19 63.4869 36.33L63.3469 36.12C63.1135 36.3533 62.9269 36.47 62.7869 36.47C62.6469 36.47 62.5069 36.4467 62.3669 36.4C62.2735 36.3533 62.1335 36.3067 61.9469 36.26L61.6669 35.98L61.3869 36.12C61.0602 35.8867 60.7102 35.63 60.3369 35.35C59.9635 35.1167 59.5902 34.9067 59.2169 34.72L58.6569 34.58C58.5635 34.4867 58.4469 34.3467 58.3069 34.16C58.1669 33.9733 58.0502 33.88 57.9569 33.88C57.9102 33.8333 57.8635 33.8333 57.8169 33.88C57.8169 33.9267 57.7702 33.9267 57.6769 33.88C57.6302 33.88 57.5135 33.8333 57.3269 33.74C57.1402 33.6 57.0002 33.5067 56.9069 33.46C56.9069 33.3667 56.8835 33.2967 56.8369 33.25C56.7902 33.1567 56.6735 33.0633 56.4869 32.97C56.3469 32.83 56.2302 32.7367 56.1369 32.69C55.9502 32.5033 55.7635 32.2933 55.5769 32.06C55.3902 31.78 55.1802 31.57 54.9469 31.43C54.9469 31.2433 54.9235 31.1267 54.8769 31.08C54.2702 30.38 53.8269 29.9133 53.5469 29.68C53.3135 29.4 52.9402 28.8167 52.4269 27.93C52.3335 27.7433 52.2169 27.5567 52.0769 27.37C51.9835 27.1833 51.8669 27.02 51.7269 26.88C51.5869 26.6933 51.4702 26.5067 51.3769 26.32C51.1902 25.9467 51.0502 25.5733 50.9569 25.2C50.8635 24.78 50.7235 24.3833 50.5369 24.01C50.3969 23.73 50.2335 23.4733 50.0469 23.24C49.8602 22.96 49.7202 22.68 49.6269 22.4C49.5802 22.2133 49.5335 22.05 49.4869 21.91C49.4402 21.77 49.3702 21.6067 49.2769 21.42L48.7169 20.51C48.6235 20.2767 48.5302 20.02 48.4369 19.74C48.3435 19.4133 48.2502 19.11 48.1569 18.83L46.4069 20.65C45.9869 21.07 45.5202 21.5133 45.0069 21.98C44.4935 22.4 44.0969 22.8667 43.8169 23.38C43.6302 23.66 43.4202 23.94 43.1869 24.22C42.9535 24.5 42.7202 24.7567 42.4869 24.99C41.6002 26.0167 40.4569 27.2067 39.0569 28.56C37.7035 29.9133 36.2802 31.1967 34.7869 32.41C33.3402 33.5767 32.0102 34.51 30.7969 35.21C30.6102 35.3033 30.4002 35.3733 30.1669 35.42C29.9802 35.5133 29.7702 35.63 29.5369 35.77C29.4435 35.8633 29.3502 35.8867 29.2569 35.84L28.6269 36.12C28.6269 36.0267 28.4869 36.05 28.2069 36.19C27.9735 36.33 27.8102 36.4233 27.7169 36.47L27.2969 36.61L27.2269 36.54L26.4569 36.89L26.3869 36.82C26.2935 36.82 26.1769 36.7967 26.0369 36.75C25.9435 36.75 25.8502 36.7967 25.7569 36.89V36.96C25.5235 37.1467 25.2435 37.24 24.9169 37.24C24.5902 37.24 24.3102 37.2867 24.0769 37.38L24.7069 36.68L22.9569 37.45ZM89.2075 40.04L88.5775 39.83C88.5308 39.97 88.4142 40.0167 88.2275 39.97C88.0875 39.97 87.9708 39.9233 87.8775 39.83C87.6442 39.4567 87.3875 39.2933 87.1075 39.34C86.8275 39.4333 86.4542 39.3867 85.9875 39.2H85.9175C85.7775 39.2 85.6142 39.2233 85.4275 39.27C85.2875 39.3633 85.1475 39.3867 85.0075 39.34L84.5175 38.92C84.5175 38.9667 84.4708 38.99 84.3775 38.99C84.2375 38.99 84.0975 38.9667 83.9575 38.92C83.8175 38.8733 83.7708 38.8267 83.8175 38.78L82.6275 38.15L82.4875 38.22L81.7175 37.38C81.6708 37.4267 81.6242 37.45 81.5775 37.45C81.4842 37.45 81.3908 37.38 81.2975 37.24C81.2042 37.1467 81.1342 37.1 81.0875 37.1C80.8075 36.8667 80.4808 36.6333 80.1075 36.4C79.7808 36.2133 79.4542 36.0033 79.1275 35.77C79.0808 35.7233 79.0575 35.63 79.0575 35.49C79.0575 35.3967 79.0108 35.3267 78.9175 35.28C78.7775 35.14 78.6142 35 78.4275 34.86C78.2408 34.72 78.1242 34.5567 78.0775 34.37L77.7975 34.44C77.5175 33.9267 77.1908 33.46 76.8175 33.04C76.4442 32.62 76.2808 32.06 76.3275 31.36H76.1875L75.2775 31.01V30.8C75.2308 30.8 75.1608 30.8233 75.0675 30.87C74.9742 30.87 74.8575 30.8467 74.7175 30.8C74.3908 30.66 74.0875 30.4967 73.8075 30.31C73.5275 30.0767 73.3175 29.7967 73.1775 29.47C73.1308 29.33 73.0608 29.26 72.9675 29.26C72.9208 29.26 72.8742 29.2367 72.8275 29.19C72.7342 28.9567 72.5942 28.7467 72.4075 28.56C72.2208 28.3733 72.1508 28.14 72.1975 27.86L72.4075 26.11C72.7808 25.69 73.0608 25.48 73.2475 25.48C73.4342 25.48 73.5275 25.69 73.5275 26.11L73.1075 26.81L73.1775 27.65C73.2708 27.7433 73.4108 27.79 73.5975 27.79C73.7842 27.79 73.9242 27.7667 74.0175 27.72L73.9475 28.14L74.2275 28.63L74.2975 28.49L74.7175 28.63L75.0675 29.12C75.1608 28.9333 75.2542 28.9333 75.3475 29.12C75.4408 29.26 75.4875 29.33 75.4875 29.33L75.8375 29.05C75.7908 28.8167 75.7442 28.5833 75.6975 28.35C75.6508 28.07 75.6275 27.8133 75.6275 27.58C75.6275 27.2533 75.6508 27.02 75.6975 26.88C75.8375 26.3667 75.8842 25.97 75.8375 25.69C75.8375 25.69 75.9308 25.5267 76.1175 25.2C76.3042 24.8267 76.4908 24.5933 76.6775 24.5L77.2375 24.15L77.3775 24.36C77.3308 24.4067 77.2375 24.5467 77.0975 24.78C76.9575 25.0133 76.8408 25.1767 76.7475 25.27C76.3742 26.0633 76.2342 26.8567 76.3275 27.65C76.3275 27.6967 76.3275 27.7667 76.3275 27.86C76.3742 27.9067 76.3742 28 76.3275 28.14V29.12C76.4208 29.1667 76.4675 29.3533 76.4675 29.68C76.4675 29.96 76.5142 30.0767 76.6075 30.03C76.8408 29.9833 77.0275 30.0533 77.1675 30.24C77.3542 30.38 77.4942 30.31 77.5875 30.03L78.0775 30.59H78.7775C78.7308 30.6833 78.8475 30.7767 79.1275 30.87C79.4542 30.9167 79.7808 30.94 80.1075 30.94C80.4342 30.94 80.5975 30.94 80.5975 30.94L81.0175 31.29C81.0175 31.2433 81.0875 31.29 81.2275 31.43H81.2975C81.4375 31.43 81.5775 31.3833 81.7175 31.29C81.9042 31.1967 82.0442 31.15 82.1375 31.15C82.3708 31.1967 82.6042 31.29 82.8375 31.43C83.1175 31.57 83.3275 31.57 83.4675 31.43L84.0275 31.64L84.6575 31.29C84.7508 31.3833 84.9375 31.4767 85.2175 31.57C85.3108 31.6167 85.4508 31.64 85.6375 31.64C86.0575 31.64 86.3608 31.5467 86.5475 31.36L86.8275 31.71C87.4808 31.6633 88.1342 31.6633 88.7875 31.71C89.4875 31.71 90.1408 31.71 90.7475 31.71C91.2608 31.71 91.7508 31.71 92.2175 31.71C92.7308 31.6633 93.2208 31.6167 93.6875 31.57C93.8275 31.57 93.9442 31.57 94.0375 31.57C94.1308 31.5233 94.2008 31.5 94.2475 31.5C94.5742 31.5 94.9475 31.4067 95.3675 31.22C95.7875 31.0333 96.1375 30.94 96.4175 30.94C96.5108 30.94 96.7208 30.87 97.0475 30.73C97.4208 30.5433 97.5375 30.66 97.3975 31.08L96.6975 31.43L96.4875 31.36C96.4408 31.4067 96.2308 31.5233 95.8575 31.71C95.5308 31.85 95.3442 31.8733 95.2975 31.78L93.8275 31.99C93.6408 32.0367 93.3608 32.0833 92.9875 32.13C92.6142 32.1767 92.4275 32.1767 92.4275 32.13L91.7975 32.27C91.7975 32.2233 91.7508 32.2 91.6575 32.2C91.4708 32.2 91.1908 32.27 90.8175 32.41C90.4908 32.55 90.3042 32.5967 90.2575 32.55C90.2108 32.4567 89.9775 32.4567 89.5575 32.55C89.1842 32.5967 88.8108 32.62 88.4375 32.62C87.8775 32.62 87.5742 32.5267 87.5275 32.34L86.9675 32.55C87.0608 32.4567 87.0142 32.41 86.8275 32.41C86.6875 32.3633 86.5708 32.3633 86.4775 32.41L86.4075 32.76C86.3142 32.8067 86.2208 32.8067 86.1275 32.76C86.0342 32.7133 85.9408 32.6667 85.8475 32.62C85.5675 32.48 85.1242 32.41 84.5175 32.41C83.9108 32.41 83.3275 32.3867 82.7675 32.34C82.2075 32.2933 81.8575 32.1767 81.7175 31.99L81.1575 32.27C80.9708 32.27 80.6908 32.2467 80.3175 32.2C79.9908 32.1067 79.7342 32.0367 79.5475 31.99C79.2208 31.8967 78.8475 31.8033 78.4275 31.71C78.0542 31.6167 77.6808 31.5933 77.3075 31.64L77.6575 32.2V32.34C77.9842 32.5267 78.2408 32.83 78.4275 33.25C78.6608 33.6233 79.0108 33.7633 79.4775 33.67L79.6875 34.58L80.2475 34.93C80.2942 34.8833 80.3408 34.86 80.3875 34.86C80.5275 34.86 80.7608 34.9533 81.0875 35.14C81.4142 35.3267 81.6708 35.4667 81.8575 35.56L82.0675 35.42L82.4175 36.05C82.4642 36.0033 82.5108 35.98 82.5575 35.98C82.6975 35.98 82.8608 36.0267 83.0475 36.12C83.2342 36.2133 83.3508 36.2367 83.3975 36.19L83.8875 36.33L84.3775 36.19C84.5642 36.47 84.6808 36.68 84.7275 36.82C84.7742 36.96 84.8442 37.0533 84.9375 37.1C85.1708 37.1933 85.1708 37.2633 84.9375 37.31C84.7508 37.3567 84.6575 37.4267 84.6575 37.52L84.7275 37.66H85.3575C85.3575 37.52 85.5208 37.4033 85.8475 37.31C86.2208 37.2633 86.5942 37.24 86.9675 37.24C87.5275 37.24 87.8542 37.2867 87.9475 37.38C88.1342 37.4733 88.1808 37.4733 88.0875 37.38L88.7175 37.31L89.1375 37.66C89.2308 37.52 89.3242 37.45 89.4175 37.45C89.5575 37.45 89.6742 37.4733 89.7675 37.52C89.9075 37.6133 89.9775 37.66 89.9775 37.66C90.0708 37.7067 90.1642 37.6133 90.2575 37.38C90.3975 37.1933 90.5608 37.1233 90.7475 37.17L91.0275 37.24C91.3542 37.24 91.6808 37.1933 92.0075 37.1C92.3808 37.0067 92.5908 37.1 92.6375 37.38L93.1275 37.03L93.4775 37.1L93.3375 37.66C93.3375 37.8467 93.3608 37.94 93.4075 37.94C93.5008 37.94 93.6175 37.7767 93.7575 37.45C93.9442 37.17 94.0375 37.1467 94.0375 37.38L94.5275 36.82C94.6675 36.9133 94.8542 36.96 95.0875 36.96C95.4608 36.96 95.8108 36.82 96.1375 36.54C96.4642 36.3067 96.8608 36.1433 97.3275 36.05L97.3975 36.19C97.4908 36.1433 97.5842 36.0967 97.6775 36.05C97.8175 36.05 97.8875 36.0967 97.8875 36.19L98.6575 36.12C98.8442 35.98 99.1475 35.8167 99.5675 35.63C100.034 35.4433 100.361 35.3033 100.548 35.21L100.618 34.93C100.618 34.93 100.734 34.93 100.968 34.93C101.248 34.8833 101.411 34.8367 101.458 34.79V34.72C101.458 34.6267 101.458 34.4867 101.458 34.3C101.458 34.0667 101.551 33.9733 101.738 34.02L102.088 34.23C102.508 34.09 102.788 33.9033 102.928 33.67C103.114 33.39 103.394 33.1333 103.768 32.9C103.908 32.8067 104.024 32.69 104.118 32.55C104.258 32.41 104.421 32.3167 104.608 32.27C104.654 32.27 104.724 32.34 104.818 32.48C104.958 32.62 105.098 32.5967 105.238 32.41L105.308 31.71L105.938 31.5L106.288 31.01C106.288 31.01 106.288 31.0333 106.288 31.08C106.334 31.08 106.381 31.08 106.428 31.08C106.614 31.08 106.824 30.8933 107.058 30.52C107.291 30.1467 107.338 29.89 107.198 29.75L107.898 28.98C107.851 28.7 107.944 28.35 108.178 27.93C108.458 27.51 108.598 26.9967 108.598 26.39C108.598 26.0167 108.481 25.5733 108.248 25.06C108.014 24.5467 107.548 23.9867 106.848 23.38L106.498 23.17C105.938 22.7967 105.424 22.5167 104.958 22.33C104.538 22.0967 103.978 21.8633 103.278 21.63C103.278 21.63 103.208 21.5833 103.068 21.49L101.108 20.93C100.921 20.79 100.501 20.6733 99.8475 20.58C99.1942 20.4867 98.7508 20.4167 98.5175 20.37C98.4242 20.3233 98.3075 20.2533 98.1675 20.16C98.0742 20.0667 97.9808 20.09 97.8875 20.23L97.2575 19.88C97.1642 19.9267 97.0475 19.95 96.9075 19.95C96.8142 19.95 96.7208 19.9267 96.6275 19.88C96.5808 19.8333 96.4408 19.81 96.2075 19.81C95.8808 19.7633 95.3442 19.6233 94.5975 19.39C93.8975 19.1567 93.5008 19.0867 93.4075 19.18L91.5875 18.27L91.3775 18.34L90.7475 17.99C90.8875 18.1767 90.7942 18.2233 90.4675 18.13C90.1408 17.99 89.7675 17.8267 89.3475 17.64C88.9275 17.4067 88.6008 17.2667 88.3675 17.22C87.5742 16.8933 86.8508 16.4267 86.1975 15.82C85.5908 15.2133 85.2875 14.4667 85.2875 13.58C85.2875 12.7867 85.3342 12.2267 85.4275 11.9C85.5208 11.5733 85.6375 11.2933 85.7775 11.06C85.9642 10.8267 86.1275 10.4767 86.2675 10.01C86.3608 9.87 86.4775 9.73 86.6175 9.59C86.8042 9.40333 86.9208 9.21667 86.9675 9.03L87.5275 8.68C87.5742 8.44667 87.6908 8.21333 87.8775 7.98C88.1108 7.74666 88.3208 7.58333 88.5075 7.49C89.1142 7.21 89.7908 6.74333 90.5375 6.09C91.3308 5.39 92.1008 4.87666 92.8475 4.55C93.0342 4.45667 93.1975 4.38667 93.3375 4.34C93.4775 4.24666 93.6408 4.17667 93.8275 4.13L93.8975 4.27C94.3175 4.13 95.0175 3.92 95.9975 3.64C96.9775 3.31333 98.0508 2.98667 99.2175 2.66C100.431 2.33333 101.551 2.05333 102.578 1.82C103.651 1.58666 104.491 1.47 105.098 1.47C105.518 1.47 105.751 1.54 105.798 1.68L106.638 1.19C106.684 1.23667 106.778 1.28333 106.918 1.33C107.058 1.33 107.151 1.30666 107.198 1.26L107.898 1.47C108.084 1.37666 108.224 1.33 108.318 1.33C108.598 1.33 108.901 1.42333 109.228 1.61C109.601 1.75 109.881 1.79666 110.068 1.75C110.301 1.65666 110.464 1.63333 110.558 1.68C110.698 1.68 110.838 1.68 110.978 1.68H111.258C111.398 1.68 111.538 1.70333 111.678 1.75C111.864 1.75 112.051 1.84333 112.238 2.03L112.588 2.1C112.728 2.24 112.798 2.40333 112.798 2.59C112.891 2.77666 113.171 2.89333 113.638 2.94C114.104 2.98667 114.408 3.08 114.548 3.22C114.921 3.5 115.131 3.96667 115.178 4.62C115.271 5.22666 115.318 5.78666 115.318 6.3C115.271 6.81333 115.061 7.44333 114.688 8.19C114.361 8.89 113.941 9.45 113.428 9.87C113.194 10.0567 112.844 10.2667 112.378 10.5C111.911 10.6867 111.561 10.85 111.328 10.99C110.814 11.3167 110.254 11.48 109.648 11.48C108.761 11.48 108.318 11.2933 108.318 10.92C108.318 10.78 108.481 10.64 108.808 10.5C109.041 10.4067 109.251 10.3133 109.438 10.22C109.671 10.08 109.881 9.91666 110.068 9.73C110.254 9.63667 110.371 9.59 110.418 9.59C110.511 9.54333 110.581 9.49667 110.628 9.45C110.721 9.40333 110.791 9.35667 110.838 9.31C110.884 9.21667 110.978 9.12333 111.118 9.03C111.398 8.79667 111.748 8.42333 112.168 7.91C112.634 7.35 112.961 6.93 113.148 6.65C113.194 6.41666 113.288 6.11333 113.428 5.74C113.614 5.32 113.708 4.94667 113.708 4.62C113.708 4.34 113.638 4.13 113.498 3.99C113.451 3.99 113.428 3.96666 113.428 3.92L113.358 3.78C112.984 2.98667 112.238 2.54333 111.118 2.45C110.044 2.31 109.134 2.24 108.388 2.24C108.388 2.24 108.341 2.21667 108.248 2.17C108.154 2.12333 108.108 2.14666 108.108 2.24L106.568 2.38L106.428 2.24L104.958 2.52L104.818 2.45L103.278 2.87C103.324 2.77666 103.301 2.75333 103.208 2.8C103.114 2.8 103.068 2.8 103.068 2.8L101.528 3.22L101.458 3.15L100.758 3.57C100.758 3.52333 100.734 3.47667 100.688 3.43C100.641 3.38333 100.618 3.36 100.618 3.36C100.571 3.40666 100.524 3.47666 100.478 3.57C100.431 3.61667 100.361 3.66333 100.268 3.71L100.128 3.64L99.1475 3.99C99.1475 4.03666 99.0542 4.06 98.8675 4.06C97.6075 4.62 96.2308 5.27333 94.7375 6.02C93.2908 6.72 92.1708 7.72333 91.3775 9.03L91.2375 8.89L90.6075 9.45C90.5608 9.49667 90.4908 9.56667 90.3975 9.66C90.3508 9.75333 90.2808 9.91667 90.1875 10.15C90.0475 10.5233 89.8375 10.9667 89.5575 11.48C89.3242 11.9933 89.2075 12.4833 89.2075 12.95C89.2075 13.4167 89.3008 13.86 89.4875 14.28C89.6742 14.6533 89.8142 14.7467 89.9075 14.56L90.5375 14.98L90.7475 15.75L90.8875 15.68L91.7975 16.38H91.9375L93.0575 17.29L93.8975 17.78H94.4575L95.2975 18.06C95.3908 18.1067 95.4608 18.1767 95.5075 18.27C95.6008 18.3167 95.7175 18.27 95.8575 18.13L96.5575 18.62C96.6042 18.5733 96.6742 18.55 96.7675 18.55C96.8608 18.55 96.9542 18.5967 97.0475 18.69C97.1408 18.7367 97.2108 18.7833 97.2575 18.83L97.3975 18.76L99.8475 19.74C99.9408 19.6933 100.058 19.67 100.198 19.67C100.431 19.67 100.618 19.7167 100.758 19.81C100.944 19.8567 101.131 19.9033 101.318 19.95C101.411 19.9967 101.528 20.0667 101.668 20.16C101.854 20.2533 101.948 20.3233 101.948 20.37C102.041 20.4167 102.134 20.44 102.228 20.44C102.368 20.44 102.484 20.44 102.578 20.44L103.208 20.65L103.838 21L104.468 21.07C104.468 21.07 104.654 21.1633 105.028 21.35C105.448 21.49 105.868 21.63 106.288 21.77C106.754 21.91 107.011 22.0033 107.058 22.05L107.478 22.47L107.548 22.4L108.038 22.68C108.551 23.0067 109.064 23.6367 109.578 24.57C110.138 25.4567 110.418 26.4367 110.418 27.51C110.418 28.21 110.301 28.91 110.068 29.61C109.881 30.2633 109.648 30.8 109.368 31.22C108.668 32.1533 107.898 32.9933 107.058 33.74C106.264 34.4867 105.541 35.1167 104.888 35.63C104.654 35.77 104.491 35.8867 104.398 35.98C104.304 36.0733 104.164 36.12 103.978 36.12C103.838 36.1667 103.721 36.2367 103.628 36.33C102.974 36.7033 102.251 37.03 101.458 37.31C100.664 37.6367 99.9642 37.94 99.3575 38.22C99.0775 38.3133 98.8442 38.36 98.6575 38.36C98.4708 38.4067 98.2842 38.4533 98.0975 38.5C98.0508 38.5 97.9575 38.5233 97.8175 38.57C97.7242 38.6633 97.6775 38.6867 97.6775 38.64L97.1875 38.99C97.1408 38.9433 97.0708 38.92 96.9775 38.92C96.7908 38.92 96.5808 39.0133 96.3475 39.2C96.1608 39.3867 95.9742 39.4567 95.7875 39.41H95.7175C95.5775 39.41 95.3908 39.4333 95.1575 39.48C94.9708 39.5733 94.8308 39.5733 94.7375 39.48L93.8275 39.83L93.6875 39.48C93.6408 39.48 93.5708 39.5267 93.4775 39.62C93.4308 39.76 93.3608 39.83 93.2675 39.83C93.2675 39.83 93.1742 39.7833 92.9875 39.69C92.8008 39.5967 92.6608 39.6433 92.5675 39.83L91.7975 40.04C91.7508 39.8533 91.6108 39.76 91.3775 39.76C91.1908 39.76 91.0275 39.83 90.8875 39.97L90.3275 39.69V39.76L89.7675 39.69L89.2075 40.04Z" fill="#F4ECE2"/>
</svg>
